<svg width="276" height="344" viewBox="0 0 276 344" fill="none" xmlns="http://www.w3.org/2000/svg">
<path d="M138 172C147.488 172 155.609 168.632 162.366 161.895C169.122 155.158 172.5 147.06 172.5 137.6C172.5 128.14 169.122 120.042 162.366 113.305C155.609 106.568 147.488 103.2 138 103.2C128.512 103.2 120.391 106.568 113.634 113.305C106.878 120.042 103.5 128.14 103.5 137.6C103.5 147.06 106.878 155.158 113.634 161.895C120.391 168.632 128.512 172 138 172ZM138 344C91.7125 304.727 57.1406 268.248 34.2844 234.565C11.4281 200.882 0 169.707 0 141.04C0 98.04 13.8719 63.7833 41.6156 38.27C69.3594 12.7567 101.488 0 138 0C174.512 0 206.641 12.7567 234.384 38.27C262.128 63.7833 276 98.04 276 141.04C276 169.707 264.572 200.882 241.716 234.565C218.859 268.248 184.288 304.727 138 344Z" fill="#B91C1C"/>
</svg>
